# xmcd
# 
# Track frame offsets:
#     150
#     14459
#     28336
#     41433
#     54918
#     68636
#     84131
#     97831
#     111896
#     126318
#     140493
#     154828
#     169737
#     183544
#     197284
#     212176
#     226669
#     240809
#     254992
#     268430
# 
# Disc length: 3739
# 
# Revision: 0
# Processed by: cddbd v1.5.2PL0 Copyright (c) Steve Scherf et al.
# Submitted via: fre:ac v1.0.27
# 
DISCID=100e9914
DTITLE=Charley Patton - THE BEST OF CHARLEY PATTON
DYEAR=2011
DGENRE=Blues
TTITLE0=Mississippi Boweavil Blues
TTITLE1=Screamin' And Hollerin' The Blues
TTITLE2=Down The Dirt Road Blues
TTITLE3=Pony Blues
TTITLE4=Banty Rooster Blues
TTITLE5=It Won't Be Long
TTITLE6=Pea Vine Blues
TTITLE7=Tom Rushen Blues
TTITLE8=A Spoonful Blues
TTITLE9=Shake It And Break It(But Don't Let It Fall Mama)
TTITLE10=Green River Blues
TTITLE11=Hammer Blues(take 1)
TTITLE12=High Water Everywhere - Part 1
TTITLE13=I Shall Not Be Moved
TTITLE14=Dry Well Blues
TTITLE15=Moon Going Down
TTITLE16=Bird Nest Bound
TTITLE17=High Sheriff Blues
TTITLE18=Poor Me
TTITLE19=Hang It On The Wall
EXTD=
EXTT0=
EXTT1=
EXTT2=
EXTT3=
EXTT4=
EXTT5=
EXTT6=
EXTT7=
EXTT8=
EXTT9=
EXTT10=
EXTT11=
EXTT12=
EXTT13=
EXTT14=
EXTT15=
EXTT16=
EXTT17=
EXTT18=
EXTT19=
PLAYORDER=
